# xmcd
#
# Track frame offsets: 
#        150
#        8355
#        47730
#        74355
#        112960
#        139203
#        153970
#        165318
#        194583
#        235210
#
# Disc length: 3232 seconds
#
# Revision: 1
# Processed by: cddbd v1.5.2PL0 Copyright (c) Steve Scherf et al.
# Submitted via: ExactAudioCopy v1.0b1
#
DISCID=790c9e0a
DTITLE=菊池 俊輔 - ドラゴンボールZ 全曲集 vol 1
DYEAR=2004
DGENRE=Anime
TTITLE0=CHA-LA HEAD-CHA-LA TVサイズ
TTITLE1=[組曲]　ドラゴンボールＺ
TTITLE2=[組曲]　この世で一番強いヤツ
TTITLE3=[組曲]　地球まるごと超決戦
TTITLE4=[組曲]　超サイヤ人だ孫悟空
TTITLE5=CHA-LA HEAD-CHA-LA
TTITLE6=[組曲]　とびっきりの最強対最強
TTITLE7=[組曲]　激突！！100億パワーの戦士たち
TTITLE8=[組曲]　極限バトル！！三大超サイヤ人
TTITLE9=でてこい　とびきりZENKAIパワー！TVサイズ
EXTD=YEAR: 2004
EXTT0=
EXTT1=
EXTT2=
EXTT3=
EXTT4=
EXTT5=
EXTT6=
EXTT7=
EXTT8=
EXTT9=
PLAYORDER=
